PathFileType	4	(X/Y/Z)	s08c0103.trc
DataRate	CameraRate	NumFrames	NumMarkers	Units	OrigDataRate	OrigDataStartFrame	OrigNumFrames
200	200	4	50	mm	200	1750	2000
Frame#	Time	racr			lacr			c7			jug			rlel			rdr			llel			ldr			s2			lic			ric			lasi			rasi			rpsi			lpsi			rgt			lgt			rth1			rth2			rth3			rth4			rlfc			rmfc			rsh1			rsh2			rsh3			rsh4			rlmal			rmmal			rcal			rtoe			rmt5			lth1			lth2			lth4			lth3			llfc			lmfc			llmal			lmmal			lcal			lmt5			lsh1			lsh2			lsh3			lsh4			ltoe			SBIKE			LBIKE			RBIKE			
		X1	Y1	Z1	X2	Y2	Z2	X3	Y3	Z3	X4	Y4	Z4	X5	Y5	Z5	X6	Y6	Z6	X7	Y7	Z7	X8	Y8	Z8	X9	Y9	Z9	X10	Y10	Z10	X11	Y11	Z11	X12	Y12	Z12	X13	Y13	Z13	X14	Y14	Z14	X15	Y15	Z15	X16	Y16	Z16	X17	Y17	Z17	X18	Y18	Z18	X19	Y19	Z19	X20	Y20	Z20	X21	Y21	Z21	X22	Y22	Z22	X23	Y23	Z23	X24	Y24	Z24	X25	Y25	Z25	X26	Y26	Z26	X27	Y27	Z27	X28	Y28	Z28	X29	Y29	Z29	X30	Y30	Z30	X31	Y31	Z31	X32	Y32	Z32	X33	Y33	Z33	X34	Y34	Z34	X35	Y35	Z35	X36	Y36	Z36	X37	Y37	Z37	X38	Y38	Z38	X39	Y39	Z39	X40	Y40	Z40	X41	Y41	Z41	X42	Y42	Z42	X43	Y43	Z43	X44	Y44	Z44	X45	Y45	Z45	X46	Y46	Z46	X47	Y47	Z47	X48	Y48	Z48	X49	Y49	Z49	X50	Y50	Z50	
1750	8.7500	569.903217	1355.963273	-119.909838	515.783263	1380.151187	-422.350377	503.896654	1438.857032	-265.781043	489.186530	1278.480336	-267.723229	597.600939	1113.684360	13.346893	778.356986	888.727853	-68.204487	557.735655	1110.640301	-498.769569	774.019385	919.225535	-432.130958	-52.386605	1234.676096	-195.355124	92.367202	1237.313148	-349.809523	128.315185	1221.090938	-41.287843	130.724239	1194.372188	-312.850653	139.370330	1160.137079	-76.930328	-11.890875	1269.803847	-141.059133	-22.998587	1283.347410	-231.551037	32.004955	1104.835308	-17.201590	57.809814	1152.041767	-390.710293	140.998515	965.713414	-20.390360	208.537284	907.882540	-24.993713	236.961555	826.226232	-35.077901	237.758420	928.428825	-33.660693	291.756756	723.623125	-52.543842	272.921661	718.665404	-160.942688	203.370264	625.535734	-23.921221	179.534056	541.770642	-46.891778	118.582286	481.385342	-53.631174	206.304868	531.929972	-76.714557	50.082735	383.918514	-63.144354	75.426560	394.603876	-150.839242	-26.519773	400.615160	-111.866042	212.507884	219.339287	-103.535954	120.196655	248.079167	-38.994862	155.031440	1064.053648	-403.130326	236.292191	1031.465504	-402.416119	257.436750	1058.262601	-389.107443	291.185968	961.828624	-409.341229	385.841963	865.688582	-401.919241	383.778558	829.666478	-283.128159	284.366997	446.826385	-402.799712	311.127398	466.487459	-317.250793	216.561312	412.780377	-365.452944	427.753079	378.072297	-427.583495	350.420508	735.520532	-418.086739	351.795091	649.876363	-404.340370	312.651497	571.613651	-408.245785	375.650209	647.296731	-372.824386	505.747154	418.344197	-359.845942	-208.778064	916.515120	-228.948130	-12.452074	80.097721	-426.204018	-9.490442	79.835909	-27.948292	
1751	8.7550	570.213228	1354.554259	-118.535836	517.335133	1378.400195	-421.450394	505.057784	1436.953463	-265.221813	490.127339	1276.582400	-266.399695	599.092489	1112.070576	13.127301	779.851533	888.044022	-68.118080	556.979436	1108.195338	-498.522950	774.429941	918.339030	-431.792619	-51.844631	1232.459835	-196.095541	93.487735	1234.833611	-350.950401	128.468041	1219.733281	-42.484128	131.119877	1192.641741	-313.874246	139.642785	1158.756815	-78.020800	-11.743298	1267.819982	-142.502542	-22.384160	1281.258056	-232.810486	32.988590	1103.909277	-17.031224	57.117173	1148.058819	-391.492697	144.078509	967.214700	-20.926331	212.721722	910.503480	-25.246485	242.637146	829.669409	-34.354707	241.536091	931.743394	-34.462265	298.523376	727.895748	-51.800124	279.365279	723.151671	-159.667507	207.734771	631.827695	-23.909698	180.753424	548.136062	-48.633093	119.828753	489.678663	-53.652320	208.710813	538.195881	-76.452887	49.026738	394.695097	-63.054615	74.537593	404.692076	-150.908632	-27.490141	412.414911	-112.028471	209.122226	228.039713	-103.498776	117.107397	258.144927	-38.958704	153.492546	1057.934371	-403.847411	234.074218	1023.826123	-403.144013	255.950007	1050.565128	-390.720037	287.596081	953.075683	-409.451485	372.710152	852.094672	-392.935638	379.009112	820.501629	-283.251700	287.363820	436.052599	-403.819822	313.819138	455.741190	-317.976756	220.016509	401.523588	-366.068978	431.467855	367.348188	-427.465373	347.688147	725.705124	-418.410657	350.942617	640.063238	-404.598872	313.390673	561.000376	-408.688160	374.543885	638.048596	-372.936775	509.164128	408.012005	-359.625377	-206.257650	916.307469	-226.212465	-12.292109	80.128377	-426.152298	-9.414507	79.847772	-27.895990	
1752	8.7600	570.480541	1352.912412	-117.291917	519.574244	1377.227785	-422.700406	506.392504	1435.557263	-264.827831	491.301512	1275.193448	-265.968798	601.072298	1110.536783	13.300963	781.179082	887.494906	-68.077060	556.464033	1105.970588	-498.603043	774.851582	917.464282	-431.465115	-51.043613	1230.712435	-196.837300	95.131976	1232.474304	-352.698935	128.675529	1218.472945	-43.816343	131.637906	1190.693612	-315.010640	140.005031	1157.449686	-79.280375	-11.526155	1266.161737	-143.487624	-21.671709	1279.282033	-234.125775	34.293852	1102.892809	-16.936521	56.535664	1143.742951	-392.403813	147.264508	968.700655	-20.903823	217.049178	913.459523	-25.255828	248.521215	833.029107	-33.746036	245.304398	935.081927	-35.235727	305.462363	732.373013	-51.065174	283.744401	729.225269	-162.747908	212.500606	638.334880	-23.631937	183.806057	555.122095	-48.196370	121.411860	498.275268	-53.603568	211.508199	544.744698	-76.135467	48.454410	405.544729	-63.230571	73.609445	415.092921	-151.290099	-27.755070	424.477047	-112.101994	206.346313	237.020674	-103.412695	114.807742	268.205068	-38.979323	151.927559	1051.280704	-404.560249	231.803694	1015.768204	-404.146656	254.079952	1042.209463	-391.631470	284.033557	943.880071	-409.443025	366.935776	841.180076	-390.002321	373.983608	810.847095	-283.639509	289.946689	424.877883	-404.411188	315.267526	444.070399	-320.598946	222.891848	390.484987	-366.624386	434.545632	356.499655	-427.359367	345.037157	715.178099	-418.198876	350.022165	629.782668	-404.644408	314.148915	550.020093	-408.851085	373.333627	628.353467	-373.022199	512.120231	397.342883	-359.395140	-206.158837	916.281938	-226.331396	-12.162281	80.095016	-426.122861	-9.321108	79.871574	-27.851451	
1753	8.7650	570.811478	1351.069150	-115.799063	520.649997	1374.619180	-419.429993	507.528039	1433.869273	-264.066031	490.802738	1273.656060	-264.356000	601.777537	1108.768172	13.573712	782.523354	886.880364	-68.004378	556.090618	1103.887973	-498.786270	775.207285	916.379915	-430.985113	-50.172761	1228.793516	-197.689323	96.862951	1229.975768	-354.487422	129.042249	1217.029245	-45.119358	132.281960	1188.525089	-316.263036	140.570555	1156.395613	-80.726155	-11.299500	1264.482791	-144.668300	-20.708569	1276.974116	-235.641309	35.785159	1101.932378	-16.934115	56.215344	1138.997941	-393.338720	150.633353	969.907350	-21.265461	221.455828	916.379089	-25.161151	254.570050	836.459630	-33.157523	249.150702	938.563498	-35.942903	312.608361	737.329471	-50.477317	290.988615	733.557834	-161.933514	217.560404	645.126630	-23.305052	188.654665	562.963479	-45.955234	123.521048	507.172626	-53.406715	214.287390	551.753633	-75.339310	48.589450	416.491012	-63.266342	74.080146	425.503415	-151.196483	-27.243046	436.651338	-111.922564	204.241728	246.095104	-103.428621	113.095378	278.482461	-38.918619	150.358205	1044.131022	-405.340890	229.568652	1007.365187	-405.180953	252.421157	1033.537701	-393.094400	280.406853	934.477714	-409.569075	362.317429	831.306499	-390.015476	368.772116	800.834963	-283.964378	292.009586	413.719273	-404.882804	317.949248	434.305997	-319.082476	225.154072	379.585642	-367.000557	436.940923	345.401295	-427.196297	342.195334	704.873213	-418.768495	349.013214	619.541784	-405.185904	314.477531	539.186280	-409.093654	371.783730	618.313729	-372.719525	514.418839	386.410801	-359.148182	-206.058949	916.343118	-226.297347	-12.057737	80.122994	-426.152862	-9.275134	79.865884	-27.868758	
